<?xml version="1.0" encoding="utf-8"?>
<!-- Generator: Adobe Illustrator 23.0.2, SVG Export Plug-In . SVG Version: 6.00 Build 0)  -->
<svg version="1.1" id="Layer_1" xmlns="http://www.w3.org/2000/svg" xmlns:xlink="http://www.w3.org/1999/xlink" x="0px" y="0px"
	 viewBox="0 0 422.63 175" style="enable-background:new 0 0 422.63 175;" xml:space="preserve">
<style type="text/css">
	.st0{fill:#2F552A;}
	.st1{fill:#85C06E;}
	.st2{fill:#C4E0C1;}
	.st3{fill:#9CC997;}
	.st4{fill:#0D3F2D;}
</style>
<path class="st0" d="M94.79,103.33c0.15-1.44,0.31-2.88,0.31-4.16c0.07-3.94,0-7.8-0.08-11.74c-0.08-1.06-0.08-2.12-0.15-3.1
	c-3.25,6.28-4.77,13.55-6.25,20.74c1.98-0.86,4.07-1.45,6.21-1.74C94.83,103.33,94.79,103.33,94.79,103.33z M81.16,107.65
	c0.79-5.47,1.95-10.89,3.46-16.21c2-7.11,4.62-13.62,9.47-19.38c0.32-0.36,0.71-0.64,1.14-0.84c0.44-0.19,0.91-0.29,1.39-0.29
	c1.07,0.02,2.09,0.42,2.88,1.13c2.65,2.65,2.57,6.13,2.57,9.62c0.08,4.09,0.23,8.25,0.23,12.34c0,4.24-0.15,8.4-0.38,12.57
	c-0.23,3.1,0.3,6,0.23,9.16c-0.05,0.75-0.37,1.45-0.9,1.98s-1.23,0.85-1.98,0.9c-0.47-0.01-0.92-0.17-1.29-0.46
	c-2.65-2-3.4-5.45-3.4-9.08c-2.35,0.68-4.85,1.36-7.2,1.89c-0.6,2.57-1.28,5.15-2,7.57c-0.13,0.48-0.41,0.9-0.8,1.2
	c-0.39,0.3-0.87,0.47-1.37,0.47c-0.61,0-1.2-0.23-1.64-0.66s-0.69-1.01-0.71-1.62c-0.23-2.33-0.23-4.67,0-7
	c-0.38-0.48-0.56-1.08-0.5-1.68c0.06-0.61,0.34-1.17,0.8-1.57V107.65L81.16,107.65z"/>
<path class="st0" d="M114.93,107.04v0.23c0.38-0.61,0.76-1.14,1.06-1.74c2.44-3.94,4.34-8.2,5.63-12.65
	c1.52-6,0.38-14.38-5.07-17.71c-0.83,6.89-1.21,13.78-1.44,20.67c-0.15,3.71-0.22,7.49-0.15,11.2H114.93L114.93,107.04z
	 M108.8,96.37c0.53-7.58,1.59-15.07,2.8-22.64c-0.62-0.08-1.18-0.38-1.59-0.86c-0.4-0.48-0.61-1.09-0.58-1.71s0.29-1.21,0.74-1.65
	c0.44-0.44,1.04-0.69,1.66-0.71c10.9-0.31,17.34,10.75,16.81,20.59c-0.46,9.16-4.85,17.26-9.54,24.91
	c-1.59,2.42-2.81,4.77-5.68,5.83c-1.82,0.68-3.49-1.06-3.56-2.73c-0.07-0.61-0.01-1.22,0.15-1.81c-1.51-2-1.59-5-1.67-7.57
	C108.27,104.16,108.57,100.23,108.8,96.37z"/>
<path class="st0" d="M145.62,103.33c0.18-1.38,0.28-2.77,0.31-4.16c0.07-3.94,0-7.8-0.08-11.74c-0.07-1.06-0.07-2.12-0.15-3.1
	c-3.26,6.28-4.77,13.55-6.28,20.74C141.4,104.2,143.48,103.62,145.62,103.33z M132,107.65c0.77-5.47,1.9-10.89,3.4-16.21
	c2-7.11,4.62-13.62,9.47-19.38c0.32-0.36,0.72-0.65,1.16-0.85s0.92-0.29,1.41-0.28c1.07,0.02,2.09,0.42,2.88,1.13
	c2.65,2.65,2.57,6.13,2.57,9.62c0.08,4.09,0.23,8.25,0.23,12.34c0,4.24-0.15,8.4-0.38,12.57c-0.23,3.1,0.3,6,0.23,9.16
	c-0.05,0.75-0.37,1.45-0.9,1.98s-1.23,0.85-1.98,0.9c-0.47-0.01-0.92-0.17-1.29-0.46c-2.65-2-3.4-5.45-3.4-9.08
	c-2.35,0.68-4.85,1.36-7.2,1.89c-0.6,2.57-1.28,5.15-2,7.57c-0.13,0.47-0.4,0.88-0.79,1.18c-0.38,0.3-0.85,0.47-1.34,0.49
	c-0.61,0-1.2-0.23-1.64-0.66s-0.69-1.01-0.71-1.62c-0.22-2.33-0.22-4.67,0-7c-0.38-0.48-0.56-1.08-0.5-1.69s0.35-1.17,0.81-1.56
	L132,107.65z"/>
<path class="st0" d="M158.16,115.29c0.88-15.53,3.56-30.9,8-45.8c0.22-0.69,0.66-1.28,1.26-1.69c0.59-0.41,1.3-0.61,2.02-0.58
	c0.69-0.06,1.38,0.13,1.94,0.55c0.55,0.42,0.93,1.03,1.06,1.72c1.04,5.75,1.71,11.57,2,17.41c0.22,2.95,0.45,5.91,0.83,8.78
	c0.01,0.48,0.06,0.96,0.15,1.44c0.38-1.13,0.68-2.27,1-3.4c0.91-3.11,1.67-6.21,2.5-9.24c1.74-6.21,3.86-12.34,7.2-17.79
	c0.22-0.43,0.56-0.79,0.97-1.05s0.88-0.4,1.36-0.42c0.81,0.03,1.58,0.35,2.18,0.9c0.6,0.55,0.98,1.3,1.07,2.1
	c1,8.63,1.44,17.26,1.59,26c0.08,4.39,0.23,8.71,0.61,13c0.3,3.26,0.53,6.67,2.2,9.54c0.34,0.6,0.51,1.27,0.5,1.96
	s-0.2,1.36-0.56,1.94c-0.36,0.59-0.86,1.07-1.46,1.39c-0.6,0.33-1.28,0.49-1.97,0.46c-0.63-0.01-1.25-0.16-1.81-0.46
	c-3.94-2.19-5-6.36-5.46-10.52c-0.41-4.68-0.57-9.38-0.45-14.08c0.08-4.62,0.45-9.24,0.76-13.94c-0.61,2.12-1.21,4.24-1.74,6.29
	c-0.84,3.41-1.67,6.81-2.73,10.22c-0.83,2.73-1.59,6.81-4.24,8.48c-0.78,0.54-1.7,0.85-2.65,0.91c-5.07,0-5.83-11.89-6.13-15.22
	c-0.23-2-0.38-3.97-0.46-5.91c-2.1,8.89-3.59,17.91-4.46,27c-0.04,0.69-0.35,1.34-0.86,1.8c-0.51,0.47-1.18,0.72-1.87,0.7
	c-0.32,0.01-0.65-0.04-0.95-0.17c-0.3-0.12-0.57-0.31-0.79-0.55c-0.22-0.24-0.39-0.52-0.5-0.83
	C158.17,115.94,158.13,115.61,158.16,115.29z"/>
<path class="st0" d="M201.17,79.22c1.06-1.06,2-1.67,2.42-3.18c0.68-2,0.23-4.24-0.23-6.21c-0.07-0.34-0.07-0.69,0.01-1.02
	c0.08-0.34,0.24-0.65,0.45-0.92c0.22-0.27,0.49-0.48,0.8-0.63s0.65-0.23,1-0.23c0.37,0,0.74,0.09,1.06,0.28s0.58,0.46,0.76,0.78
	c1.82,3.25,3.33,7,2.27,10.75c-0.83,3-3.18,6-6.51,6c-3.56,0.08-4.09-3.41-2-5.6L201.17,79.22z"/>
<path class="st0" d="M216.08,83.65c2.5-5,5.6-9.7,10.53-12.72c0.45-0.28,0.98-0.44,1.51-0.46c2.5,0,4,3.79,1.44,5.6
	c-4,3-6.44,8.56-7.88,13.18c-0.53,1.82-1.06,3.71,0.76,4.69s3.71,1.14,5.45,2c5,2.42,6.29,7.72,4.47,12.72
	c-1.59,4-6.51,13.78-11.58,13.78c-0.92,0.07-1.83-0.2-2.57-0.75s-1.25-1.35-1.43-2.25c-0.6-3.18,1.67-4.24,3.33-6.44
	c1.87-2.21,3.36-4.72,4.4-7.42c0.75-2.27-0.16-2.34-2.2-3c-2.2-0.75-4.47-1.51-6.21-3.18c-4.62-4.39-2.5-10.82,0-15.74L216.08,83.65
	z"/>
<path class="st1" d="M258.03,77.51c2-4.31,4.77-9.61,10.22-9.61c0.95-0.02,1.89,0.16,2.76,0.52c0.87,0.37,1.66,0.91,2.31,1.6
	c0.38,0.41,0.64,0.93,0.73,1.48s0.02,1.12-0.2,1.64c-0.23,0.51-0.6,0.95-1.07,1.26s-1.02,0.47-1.58,0.47c-0.35,0-0.7-0.08-1.03-0.22
	c-0.32-0.14-0.62-0.35-0.86-0.61c-0.17-0.15-0.38-0.24-0.61-0.23c-2.35,0-6.13,10-6.59,11.21c-1.7,4.9-2.67,10.03-2.87,15.21
	c-0.08,1.74-0.31,5.6,1.36,6.89c1.44,1.13,3.33-3,3.86-4.09c1.77-3.65,3.06-7.52,3.86-11.5l-1.59,0.68
	c-0.46,0.28-0.98,0.44-1.51,0.46c-2.5,0-3.94-3.64-1.44-5.46c3-2.12,8.93-3.86,12.72-3.86c0.69-0.05,1.39,0.06,2.03,0.32
	c0.64,0.26,1.22,0.67,1.68,1.2c0.39,0.38,0.64,0.88,0.73,1.42c0.08,0.54-0.02,1.09-0.27,1.58c-1.21,1.74-2.72,2-4.46,2.19
	c-0.08,5.3,0.07,10.53,0.3,15.83c0.15,2.57,0.23,5.14,0.38,7.72s0.76,5.07,0.76,7.65c-0.02,0.69-0.24,1.36-0.64,1.93
	c-0.39,0.57-0.94,1.01-1.59,1.27c-0.64,0.26-1.34,0.34-2.02,0.21s-1.31-0.45-1.81-0.92c-3.26-3.1-3.26-8.7-3.11-13.32
	c-2,2.27-4.24,4.16-7.57,4.16c-6.36,0-8.7-7.34-8.78-12.64c-0.15-8.33,2.27-17,5.91-24.46v0.02L258.03,77.51L258.03,77.51z"/>
<path class="st1" d="M297.93,103.33c0.15-1.44,0.3-2.88,0.3-4.16c0.07-3.94,0-7.8-0.08-11.74c-0.07-1.06-0.07-2.12-0.15-3.1
	c-3.25,6.28-4.77,13.55-6.28,20.74C293.7,104.2,295.79,103.62,297.93,103.33z M284.3,107.65c0.77-5.47,1.9-10.89,3.4-16.21
	c2-7.11,4.62-13.62,9.47-19.38c0.32-0.36,0.72-0.65,1.16-0.85s0.92-0.29,1.41-0.28c1.07,0.02,2.09,0.42,2.88,1.13
	c2.65,2.65,2.57,6.13,2.57,9.62c0.08,4.09,0.23,8.25,0.23,12.34c0,4.24-0.15,8.4-0.38,12.57c-0.22,3.1,0.31,6,0.23,9.16
	c-0.05,0.75-0.37,1.45-0.9,1.98s-1.23,0.85-1.98,0.9c-0.47,0-0.92-0.17-1.28-0.46c-2.65-2-3.41-5.45-3.41-9.08
	c-2.35,0.68-4.85,1.36-7.19,1.89c-0.61,2.57-1.29,5.15-2.05,7.57c-0.13,0.47-0.4,0.88-0.79,1.18c-0.38,0.3-0.85,0.47-1.33,0.49
	c-0.61,0-1.2-0.24-1.64-0.66c-0.44-0.43-0.7-1.01-0.71-1.62c-0.22-2.33-0.22-4.67,0-7c-0.38-0.48-0.55-1.08-0.5-1.69
	c0.06-0.61,0.35-1.17,0.81-1.56L284.3,107.65L284.3,107.65z"/>
<path class="st1" d="M319.62,97.5v3c0.21-1.08,0.52-2.15,0.91-3.18c2-5.22,6.28-10.22,6.58-16c0.12-1.07-0.01-2.15-0.38-3.16
	s-0.96-1.92-1.74-2.67c-0.91-0.71-2.03-1.08-3.18-1.06c-0.77,0.03-1.53,0.13-2.27,0.3c0.53,7.57,0.23,15.3,0.08,22.79V97.5z
	 M311.62,110.83c0.15-4.24,0.46-8.48,0.68-12.8c0.53-8,0.84-16,2.05-23.92c-0.53-1.14-0.53-2.58,0.53-3.26
	c0.09-0.25,0.24-0.48,0.43-0.68s0.41-0.35,0.66-0.46s0.51-0.16,0.78-0.16s0.54,0.05,0.79,0.16c1.59-0.53,3.25-0.81,4.92-0.83
	c2.47-0.05,4.87,0.81,6.74,2.42c3.63,3,4.84,8,4.24,12.42c-0.76,5.83-4.32,10.45-6.21,15.9c-0.15,0.38-0.61,2.65-1.06,2.73
	c0.97-0.03,1.93-0.16,2.88-0.38c2.8-0.53,5.3-1.29,8.1-1.14c2.5,0.08,4.69,3.64,2.27,5.45c-3.33,2.47-7.36,3.8-11.51,3.79
	c-3.63,0-7.57-1-8.4-5.15v4.92c-0.09,2.02-0.07,4.04,0.07,6.06c0.08,2,0.46,3.86-0.3,5.83c-0.23,0.62-0.63,1.17-1.16,1.56
	c-0.54,0.39-1.17,0.61-1.84,0.64c-0.38,0.01-0.76-0.07-1.1-0.23c-0.35-0.16-0.65-0.39-0.9-0.68c-3-3.11-2.73-8.1-2.58-12.19
	L311.62,110.83L311.62,110.83z"/>
<path class="st1" d="M350.16,107.04v0.23c0.38-0.61,0.76-1.14,1.07-1.74c2.43-3.95,4.31-8.2,5.6-12.65c1.51-6,0.38-14.38-5.07-17.71
	c-0.84,6.89-1.22,13.78-1.44,20.67C350.16,99.55,350.09,103.33,350.16,107.04z M344.04,96.37c0.52-7.58,1.58-15.07,2.8-22.64
	c-0.62-0.08-1.18-0.38-1.58-0.86c-0.4-0.47-0.61-1.08-0.58-1.7s0.29-1.21,0.73-1.65s1.03-0.69,1.65-0.71
	c10.9-0.31,17.34,10.75,16.81,20.59c-0.45,9.16-4.84,17.26-9.54,24.91c-1.59,2.42-2.8,4.77-5.68,5.83
	c-1.81,0.68-3.48-1.06-3.56-2.73c-0.06-0.61-0.01-1.22,0.15-1.81c-1.51-2-1.58-5-1.66-7.57C343.5,104.16,343.81,100.23,344.04,96.37
	z"/>
<path class="st1" d="M368.56,93.87c0.38-0.23,0.76-0.38,1.14-0.61c0.45-6.59,1.44-13.32,2.42-19.76c-0.01-0.28,0.01-0.56,0.08-0.83
	c0.15-0.84,0.3-1.67,0.38-2.5c0.09-0.51,0.36-0.97,0.76-1.29c0.4-0.32,0.91-0.48,1.43-0.45c0.79,0,1.54,0.29,2.12,0.83
	c2.21-1,4.58-1.62,7-1.82c0.7-0.06,1.41,0.06,2.06,0.33c0.65,0.28,1.22,0.71,1.67,1.26c0.38,0.36,0.63,0.85,0.7,1.37
	s-0.05,1.06-0.32,1.51c-1.44,2-3.48,2.12-5.75,2.5c-1.68,0.27-3.33,0.7-4.92,1.29c-0.15,4.77-0.38,9.46-0.46,14.23
	c2-0.76,4.18-0.97,6.29-0.61c0.31,0.08,0.59,0.23,0.83,0.43c0.24,0.21,0.42,0.47,0.54,0.76s0.17,0.61,0.14,0.92s-0.13,0.62-0.3,0.89
	c-1.59,2.8-4.55,4.31-7.57,5.6c0,4.85,0.07,10.3,2.19,14.76c0.61,1.37,1.21,2.81,2.8,2.28s3.18-2.2,4.55-3.11
	c0.37-0.27,0.82-0.4,1.28-0.38c0.42,0,0.83,0.09,1.21,0.27s0.71,0.45,0.97,0.77c0.26,0.33,0.45,0.71,0.54,1.12s0.09,0.83,0,1.24
	c-1.36,4.24-5,7.95-9.39,7.95c-10.07,0-11.28-15.52-11.43-22.79c-2.73-0.76-4.17-4.69-1-6.13L368.56,93.87z"/>
<path class="st1" d="M394.46,91.75c0.38-6.74,0.68-13.71,3.78-19.84c0.26-0.49,0.66-0.9,1.14-1.18s1.03-0.42,1.59-0.41
	c0.71-0.03,1.4,0.19,1.97,0.62s0.96,1.04,1.13,1.73c1.59,7.64,3.18,15.37,4.85,23c0.91,3.79,1.82,7.65,2.88,11.44
	c0.22,0.83,0.45,1.74,0.75,2.57c0.08-1.06,0.08-2.19,0.16-3.25c0.14-3.56,0.29-7,0.45-10.6c0.3-7.27,0.6-14.54,1.59-21.73
	c0.07-0.77,0.43-1.49,1-2.01c0.57-0.52,1.32-0.81,2.1-0.8c0.37-0.01,0.74,0.05,1.09,0.19c0.34,0.14,0.66,0.35,0.92,0.61
	s0.46,0.58,0.6,0.93c0.13,0.35,0.19,0.72,0.17,1.09c0.38,9.46-0.31,18.92-0.68,28.39c-0.23,4,0.75,19.91-5.83,19.91
	c-4.55,0-6.44-5.53-7.65-9c-1.38-4.19-2.5-8.46-3.33-12.79c-0.84-3.79-1.59-7.58-2.35-11.44c-0.07,1.59-0.15,3.18-0.23,4.7
	c-0.46,6.78-0.59,13.57-0.37,20.36c0.02,0.35-0.04,0.69-0.16,1.02s-0.31,0.62-0.55,0.87s-0.53,0.45-0.86,0.58
	c-0.32,0.13-0.67,0.19-1.01,0.18c-0.73,0.02-1.44-0.25-1.97-0.74c-0.54-0.49-0.86-1.18-0.91-1.91c-0.49-7.48-0.56-14.99-0.22-22.48
	L394.46,91.75z"/>
<path class="st2" d="M48,86.95c-1.25-7.35-6.18-12.88-11.84-17.47c-2.29-2.05-4.88-3.76-7.69-5.06c-6.49-2.74-13.8-2.93-20.43-0.55
	c-5.66,2.42-9.19,7.92-4.58,13.1c6.14,6.78,16.01,8.13,23.46,13.02c5.68,3.48,14.73,11.89,20.16,3.87c0.1-0.01,0.2-0.04,0.28-0.1
	s0.14-0.14,0.17-0.23c0.44-1.02,0.67-2.12,0.69-3.23c-0.09-0.56,0.29-1.23,0-1.71C48.22,87.99,48.08,87.36,48,86.95L48,86.95
	L48,86.95z"/>
<path class="st0" d="M109.5,38.27c-7.32-0.6-14.67,4.53-20.5,8.46c-2.31,1.71-4.53,3.54-6.65,5.48l-0.08,0.07l-0.46,0.44l-0.16,0.16
	h-0.08L81.43,53c-6.1,6.07-11.78,12.87-14.74,20.86l-0.3,0.85c-1.36,2.23-1.81,4.83-2.5,7.3c-0.15,0.5-0.31,1-0.51,1.5
	c-0.05,0.13-0.04,0.28,0.02,0.41s0.17,0.23,0.3,0.28h0.1c0.12,0.03,0.25,0.01,0.36-0.05s0.2-0.16,0.24-0.27
	c0.6-1.87,1.33-3.69,2.19-5.46l0.11-0.24c1.23-2.83,2.98-5.41,5.16-7.6c2.79-2.83,6.58-4.08,10.23-5.47
	c6.33-2.9,13.09-5.28,18.98-9.21c2.28-1.67,4.56-3.36,6.7-5.21l0.09-0.07l0.11-0.1c3.22-2.78,7.21-9.92,1.55-12.25l0,0
	C109.52,38.27,109.5,38.27,109.5,38.27z"/>
<path class="st3" d="M65.22,56.93l-0.19-0.23l0.21,0.15L65.22,56.93z M72.33,12c-5.01,7.12-8.89,14.96-11.52,23.26
	c-0.7,2.82-1.02,5.72-0.95,8.63c-0.02,5.03,1.6,9.93,4.63,13.95c0.24,0.25,0.46,0.51,0.7,0.78l0.26,0.26
	c0.36,0.37,0.78,0.66,1.25,0.86c1.1,0.13-0.2-1.25-0.46-1.5c0.19-0.05,0.35-0.16,0.46-0.33c0.34,0.22,0.71,0.4,1.1,0.54
	c3.23,1.14,6.63-1.43,9.02-3.53c9.17-8.13,13.4-20.22,16.34-31.79C100.05,0.95,86.43-7.21,72.33,12z"/>
<path class="st4" d="M63.35,107.71c0.23-3.92,0.23-7.85,0-11.77c1.05-21.48,1.27-43.36,7.37-64.17C74.29,21.19,78.65,6.89,90.08,2.4
	c0.37-0.09,1.13-0.41,1.27,0.13c0,0.24-0.23,0.33-0.44,0.29c-0.32,0.04-0.64,0.12-0.94,0.25c-3.38,1.49-6.2,3.97-8.08,7.11
	c-4.03,6-6.16,12.78-8.25,19.51c-5.07,16.17-6.44,33.16-6.97,49.99c-0.53,14.51-1.18,29.02-1.71,43.54"/>
<path class="st4" d="M58.18,83.74l-0.83-2.05c0.17-1.5,0.34-2.98,0.55-4.47c0.09,0.19,0.16,0.38,0.24,0.57
	c0.1,2.14,0.16,4.29,0.21,6.43C58.35,84.06,58.23,83.91,58.18,83.74z"/>
<path class="st4" d="M56.38,78.44c-0.44-1.48-0.9-2.96-1.38-4.43c0-0.4-0.15-3.53-0.88-2.61c-0.25-0.73-0.52-1.48-0.77-2.21
	c0.1-1.66,0.19-3.32,0.36-4.97c1.33,3.72,2.55,7.47,3.64,11.25c-0.17,1.58-0.3,3.17-0.43,4.75L56.38,78.44z"/>
<path class="st4" d="M53.69,67.59c-2.84-8.14-6.77-15.91-11.68-23.12c-1.37-1.98-2.89-3.86-4.54-5.64c-0.4-0.38,0.32-0.91,0.61-0.43
	c8.01,6.53,12.98,15.63,16.27,25c-0.18,1.61-0.3,3.2-0.4,4.81l-0.23-0.63L53.69,67.59L53.69,67.59z"/>
<path class="st4" d="M58.28,110.39c-3.94-7.37-9.7-13.5-15.7-19.22c-10.06-9.51-21.97-16.83-35-21.49c-0.22,0-0.34-0.36-0.1-0.46
	c5.25,0.83,10.35,2.43,15.12,4.77c5.39,2.58,10.43,5.83,15,9.67l-0.11-0.1c4.74,4.02,9.21,8.34,13.39,12.95
	c-0.04-0.03-0.07-0.06-0.1-0.1c4.36,4.67,7.93,10.01,10.57,15.81"/>
<path class="st4" d="M64.38,79.82c0.8-2.75,2.01-5.36,3.59-7.75v-0.08c3.33-5.22,7.87-9.54,12.33-13.85
	c2.92-2.57,5.98-4.99,9.15-7.25c0.03,0.01,0.06,0.01,0.09,0l0.85-0.62c5.26-3.58,10.88-6.61,16.77-9.04
	c0.15-0.08,0.28,0.18,0.11,0.24c-2.36,1.07-4.69,2.2-6.99,3.41c-13.08,7.25-24.17,17.54-32.32,30l-0.37,0.58
	c-0.93,1.46-1.75,2.97-2.63,4.46c0,0.08-0.03,0.16-0.09,0.21c-0.06,0.06-0.13,0.09-0.22,0.09c-0.08,0-0.16-0.03-0.22-0.09
	s-0.09-0.13-0.09-0.21L64.38,79.82z"/>
<path class="st1" d="M65.01,60.11c0-0.39-0.1-0.8-0.16-1.19c-0.66-5.24-2.45-10.26-5.25-14.71c-2.31-3.61-5.68-6.4-9.63-7.97
	c-2.01-0.91-4.24-1.22-6.43-0.89c-2.18,0.33-4.23,1.29-5.89,2.76c-2.07,1.87-3.49,4.38-4.05,7.14c-0.9,4.74,0.71,9.52,2.67,13.75
	c4.33,7.75,12.76,26.76,21.85,28.21h0.16c0.26,0.03,0.52,0.03,0.78,0h0.12h0.23c2.06-0.61,2.66-3.45,3.08-5.44
	c0.53-1.21,0.96-2.47,1.31-3.75c0.34-1.3,0.62-2.61,0.83-3.94c0.81-4.59,0.94-9.27,0.38-13.9L65.01,60.11L65.01,60.11z"/>
<path class="st4" d="M63.55,114.8c-0.95-8.33-2.45-16.6-4.46-24.74v-0.07v-0.12c0-0.12,0-0.26-0.09-0.39v0.07l-0.08-0.31
	c-4.17-18.2-12.11-35.27-21.31-51.43c-0.04-0.06-0.08-0.11-0.13-0.16c-0.03-0.01-0.06-0.03-0.09-0.06
	c-0.02-0.03-0.04-0.06-0.05-0.09s-0.01-0.07,0-0.11c0.01-0.03,0.03-0.07,0.05-0.09c0.24-0.2,0.55,0.11,0.73,0.28
	c4.41,4.99,6.92,11.2,9.94,16.96c4.85,9.36,8.53,19.29,10.96,29.54c2.45,10.26,4.23,20.67,5.31,31.15"/>
</svg>
