<svg id="Layer_1" data-name="Layer 1" xmlns="http://www.w3.org/2000/svg" viewBox="0 0 493 69"><defs><style>.cls-1{fill:#0d3f2d;}</style></defs><title>allForPlants</title><path class="cls-1" d="M6.49,8.94C11,8,15.47,7.22,20,6.58A42.35,42.35,0,0,1,27,5.35a5.41,5.41,0,0,1,4.17,1.56,2.39,2.39,0,0,1,.57,1.26,2.45,2.45,0,0,1-.24,1.36c-1.65,3.35-6.95,3-10.13,3.42l-1.07.17c.17,6.79.67,13.63,1.07,20.49.16,3.92.33,7.86.56,11.8.26,3.61.9,7.6-1.13,10.78a2.88,2.88,0,0,1-1,.91,3,3,0,0,1-1.34.32,2,2,0,0,1-.94-.17,2.08,2.08,0,0,1-.78-.56C14.22,53.76,14.15,49.75,14,46s-.33-7.93-.4-11.79c0-6.8.24-13.5.64-20.27l-6,.8c-3.84.57-5.56-5.14-1.65-5.87Z"/><path class="cls-1" d="M42.73,33c.34,3.51.57,6.93,1.14,10.45a28.42,28.42,0,0,0,.66,4.08,13.13,13.13,0,0,0,.66-2.13,39.65,39.65,0,0,0,1.22-6,67.71,67.71,0,0,0,.73-12.24,28.35,28.35,0,0,0-2-11.37,3.71,3.71,0,0,0-1.63-1.86,2.52,2.52,0,0,0-1.22,0A92.5,92.5,0,0,0,42.73,33Zm-8.08-4.72a58.12,58.12,0,0,1,2.12-16.75,6.85,6.85,0,0,1,8.65-6.3c5,.9,7.69,5.4,9,9.88a52.6,52.6,0,0,1,1.72,16.52C55.86,38,54.24,58.46,44.93,58.46c-5.94,0-8.39-6.7-9.12-11.59a118.54,118.54,0,0,1-1.16-18.54Z"/><path class="cls-1" d="M68.94,46.19v.23c.4-.63.8-1.22,1.14-1.86a55,55,0,0,0,6-13.66c1.65-6.53.42-15.52-5.47-19.11-.9,7.44-1.3,14.87-1.55,22.32C68.94,38.1,68.85,42.18,68.94,46.19ZM62.41,34.68c.57-8.19,1.73-16.26,3-24.44a2.67,2.67,0,0,1,.26-5.31c11.78-.33,18.69,11.61,18.1,22.22C83.32,37,78.58,45.79,73.52,54c-1.73,2.62-3,5.17-6.13,6.3a3.07,3.07,0,0,1-2.64-.53,3.11,3.11,0,0,1-.87-1.07,3,3,0,0,1-.31-1.35,5.62,5.62,0,0,1,.14-2,14.59,14.59,0,0,1-1.79-8.16C61.92,43.08,62.18,38.83,62.41,34.68Z"/><path class="cls-1" d="M96.42,33c.33,3.51.59,6.93,1.16,10.45a23.6,23.6,0,0,0,.66,4.08,17.41,17.41,0,0,0,.64-2.13,35.33,35.33,0,0,0,1.22-6,65.94,65.94,0,0,0,.73-12.24,28.14,28.14,0,0,0-2-11.37,3.66,3.66,0,0,0-1.63-1.86,2.56,2.56,0,0,0-1.23,0A94.64,94.64,0,0,0,96.42,33Zm-8.06-4.72a57.4,57.4,0,0,1,2.12-16.75,6.88,6.88,0,0,1,2.81-5.24,6.82,6.82,0,0,1,5.85-1.06c5,.9,7.65,5.4,9,9.88a53.21,53.21,0,0,1,1.7,16.52C109.58,38,108,58.46,98.64,58.46c-6,0-8.41-6.7-9.15-11.59a116.14,116.14,0,0,1-1.13-18.54Z"/><path class="cls-1" d="M133.73,13.26c1.8-3.92,5.54-10.19,10.37-10.19a6.57,6.57,0,0,1,2.36.47,3.05,3.05,0,0,1,1.31,3.35,3.11,3.11,0,0,1-1,1.59,3,3,0,0,1-1.75.7l-.17.16a12,12,0,0,0-.89,1.23,12.63,12.63,0,0,0-1.16,1.63,19.51,19.51,0,0,0-2.19,4.41,14.16,14.16,0,0,0-.73,8.09c1.23,6,8,8.35,11.5,12.83a13,13,0,0,1-.82,17.72c-4,4.41-10.11,9.43-16.5,8.25-2.85-.49-3-4.08-1.56-6,2.22-2.59,5.57-3.75,8.25-5.8,2-1.46,5.64-4.08,4.72-6.93s-4-4.72-6.13-6.44a21.57,21.57,0,0,1-6-7,20.51,20.51,0,0,1,.33-18.14Z"/><path class="cls-1" d="M166.38,33c.33,3.51.56,6.93,1.15,10.45a26.84,26.84,0,0,0,.64,4.08,13.13,13.13,0,0,0,.66-2.13,37.37,37.37,0,0,0,1.22-6,67.71,67.71,0,0,0,.73-12.24,28.35,28.35,0,0,0-1.95-11.37,3.71,3.71,0,0,0-1.63-1.86,2.56,2.56,0,0,0-1.23,0A93.92,93.92,0,0,0,166.38,33Zm-8.09-4.72a58.12,58.12,0,0,1,2.12-16.75,6.85,6.85,0,0,1,8.65-6.3c5,.9,7.69,5.4,9,9.88a52.6,52.6,0,0,1,1.72,16.52c-.23,6.37-1.88,26.87-11.17,26.87-6,0-8.41-6.7-9.14-11.59a118.54,118.54,0,0,1-1.16-18.54Z"/><path class="cls-1" d="M197,52.23a5.42,5.42,0,0,1-.23,2.62,3.13,3.13,0,0,1,.56-.59,23.35,23.35,0,0,0,5.87-8.33c.82-3.09-3.09-3.75-5-5a15.44,15.44,0,0,1-1.82-1.3,73.26,73.26,0,0,0,.59,12.65Zm-1.22-41.17a122.34,122.34,0,0,1,.73,16.35c.49-.66,1-1.23,1.39-1.89a98.86,98.86,0,0,0,6.52-8.82c.81-1.32,1.87-2.95.64-4.17a7.09,7.09,0,0,0-3.58-1.23A23.15,23.15,0,0,0,195.77,11.06Zm-10,35.62c0-4.08.16-8.18.33-12.33a189.37,189.37,0,0,1,1.29-23.45,3.22,3.22,0,0,1-.82-3.05,3.2,3.2,0,0,1,.81-1.43,3.23,3.23,0,0,1,1.4-.83,42.37,42.37,0,0,1,9.64-1.23c4.72,0,9.55,1.07,12.16,4.72s1.47,7.6-.56,11-5.23,7.07-7.85,10.64c-.5.63-1.7,1.69-1.86,2.52-.26,1.23.16,1.46,1.13,2.12,1.46,1.07,3.18,1.56,4.71,2.53a8.62,8.62,0,0,1,3.61,9.43,26.6,26.6,0,0,1-6,9.82c-2.13,2.69-5.64,7.76-9.43,7.43a2.59,2.59,0,0,1-2.6-2.62,6,6,0,0,1,1.54-3.51,4.47,4.47,0,0,1-4.24-1.3,12.84,12.84,0,0,1-2.71-4.76,13.11,13.11,0,0,1-.48-5.46Z"/><path class="cls-1" d="M225.46,36v3.19a20.23,20.23,0,0,1,1-3.44c2.19-5.64,6.77-11,7.07-17.23a7.52,7.52,0,0,0-.45-3.42,7.62,7.62,0,0,0-1.91-2.87,5.28,5.28,0,0,0-3.41-1.14,12.4,12.4,0,0,0-2.36.31c.57,8.19.24,16.51,0,24.6Zm-8.65,14.37c.17-4.58.5-9.15.73-13.8.59-8.59.9-17.31,2.22-25.81a2.73,2.73,0,0,1,.56-3.51A2.11,2.11,0,0,1,221.48,6a2.26,2.26,0,0,1,.85-.17,2.19,2.19,0,0,1,.84.19,18.14,18.14,0,0,1,5.31-.9,10.84,10.84,0,0,1,7.28,2.62,14.61,14.61,0,0,1,4.55,13.38c-.8,6.3-4.71,11.27-6.69,17.17-.15.4-.64,2.86-1.14,2.93a16.45,16.45,0,0,0,3.12-.4,35.63,35.63,0,0,1,8.72-1.23c2.68,0,5.06,3.92,2.35,5.87a20.6,20.6,0,0,1-12.39,4.11c-3.94,0-8.18-1.06-9.08-5.57v5.31a64.65,64.65,0,0,0,0,6.53,14.89,14.89,0,0,1-.33,6.3,3.62,3.62,0,0,1-3.27,2.36,2.74,2.74,0,0,1-2.2-1c-3.18-3.35-2.94-8.75-2.78-13.16Z"/><path class="cls-1" d="M251.67,32c.4-.23.8-.4,1.23-.63.47-7.08,1.53-14.39,2.61-21.23a4.51,4.51,0,0,1,0-.9,24.58,24.58,0,0,0,.4-2.69,2.37,2.37,0,0,1,2.36-1.89,3.45,3.45,0,0,1,2.36.9,22.63,22.63,0,0,1,7.59-2,4.84,4.84,0,0,1,2.19.39,4.7,4.7,0,0,1,1.76,1.36,2.32,2.32,0,0,1,.8,1.46,2.35,2.35,0,0,1-.37,1.63c-1.56,2.21-3.77,2.36-6.2,2.71a28,28,0,0,0-5.33,1.37c-.14,5.17-.4,10.21-.47,15.36a12.71,12.71,0,0,1,6.77-.64,2.2,2.2,0,0,1,.86.47,2.18,2.18,0,0,1,.73,1.77,2.22,2.22,0,0,1-.27.94,15.86,15.86,0,0,1-8.18,6c0,5.24,0,11.11,2.35,15.93.64,1.48,1.3,3,3,2.36a29.94,29.94,0,0,0,4.9-3.36,2.1,2.1,0,0,1,1.37-.4,3,3,0,0,1,1.31.3,3.05,3.05,0,0,1,1.05.84,3,3,0,0,1,.58,1.2,2.89,2.89,0,0,1,0,1.34c-1.46,4.58-5.38,8.57-10.11,8.57-10.87,0-12.16-16.75-12.33-24.58-2.95-.83-4.5-5.08-1.06-6.63Z"/><path class="cls-1" d="M305.69,23.47a21.24,21.24,0,0,0,6.53-7.5c1.15-2.22,2.35-5.14-1-5.64a9.32,9.32,0,0,0-6.13,1.56C305.29,15.71,305.45,19.56,305.69,23.47Zm-8.49,3.94c0-6.7.33-13.4.5-20a3.47,3.47,0,0,1,1.09-2.54A3.38,3.38,0,0,1,300,4.09a3.52,3.52,0,0,1,1.4-.22,3.7,3.7,0,0,1,1.5.28,3.64,3.64,0,0,1,1.25.88,14.26,14.26,0,0,1,9.43-1.56,9.44,9.44,0,0,1,3.53,1.42,9.74,9.74,0,0,1,2.71,2.68,9.65,9.65,0,0,1,1.42,7.34,25.83,25.83,0,0,1-5.17,11.3,25.66,25.66,0,0,1-9.84,7.57c.23,4.25.33,8.42.66,12.57.23,3.28,2.12,8.68.23,11.54a4.08,4.08,0,0,1-4.71,1.86c-4.24-1.7-4.41-7.07-4.71-11.11-.43-5-.5-10.19-.5-15.36a3.67,3.67,0,0,1-1-1.3,3.76,3.76,0,0,1,0-3.17,3.67,3.67,0,0,1,1-1.3Z"/><path class="cls-1" d="M324.78,47.32c.49-13.37,3.35-26.7,3.11-40.1a2.48,2.48,0,0,1,.85-1.74A2.38,2.38,0,0,1,329.6,5a2.5,2.5,0,0,1,1-.13,2.18,2.18,0,0,1,1.52.44,2.13,2.13,0,0,1,.83,1.35,139.26,139.26,0,0,1,0,31,75.44,75.44,0,0,0-.42,14.72,3,3,0,0,0,.16.73.31.31,0,0,0,.13,0,.28.28,0,0,0,.13,0,16.14,16.14,0,0,1,3.19-1.46,14.39,14.39,0,0,1,7.33-2,3.08,3.08,0,0,1,1.47.42,2.9,2.9,0,0,1,1.07,1.1,3,3,0,0,1,.4,1.48A3.07,3.07,0,0,1,346,54c-1.88,3-4.9,4-8,5.48a14,14,0,0,1-5.87,1.79,8.22,8.22,0,0,1-2.36-.4c-5.47-1.79-5.16-8.66-5-13.33Z"/><path class="cls-1" d="M363.48,42.18a42,42,0,0,0,.33-4.48V25a21.22,21.22,0,0,0-.17-3.35,88.12,88.12,0,0,0-6.76,22.39,25.18,25.18,0,0,1,6.69-1.89ZM348.77,46.9a135.39,135.39,0,0,1,3.68-17.48,53.39,53.39,0,0,1,10.2-20.93,3.67,3.67,0,0,1,1.26-.91,3.63,3.63,0,0,1,1.52-.31,4.69,4.69,0,0,1,3.09,1.22c2.88,2.86,2.78,6.63,2.78,10.38,0,4.41.26,8.9.26,13.31s-.16,9.08-.42,13.56c-.24,3.35.33,6.54.26,9.88a3.34,3.34,0,0,1-3.11,3.12,2.31,2.31,0,0,1-1.39-.5,11.74,11.74,0,0,1-3-4.46,11.93,11.93,0,0,1-.69-5.33c-2.52.73-5.21,1.47-7.75,2-.64,2.79-1.37,5.57-2.2,8.16a2.32,2.32,0,0,1-.85,1.33,2.39,2.39,0,0,1-1.5.49,2.53,2.53,0,0,1-1.73-.68,2.57,2.57,0,0,1-.8-1.68,38.5,38.5,0,0,1,0-7.59A2.56,2.56,0,0,1,348.7,47Z"/><path class="cls-1" d="M378.49,29.68c.4-7.27.73-14.77,4.08-21.4a3.16,3.16,0,0,1,2.94-1.72,3.39,3.39,0,0,1,2.13.68,3.3,3.3,0,0,1,1.22,1.87c1.7,8.25,3.42,16.51,5.21,24.84,1,4.08,2,8.23,3.11,12.31A26.89,26.89,0,0,0,398,49a25.92,25.92,0,0,1,.16-3.51c.14-3.82.31-7.6.47-11.42.33-7.85.66-15.69,1.72-23.45a3.35,3.35,0,0,1,1.09-2.16,3.3,3.3,0,0,1,2.26-.86,3,3,0,0,1,1.15.22,2.7,2.7,0,0,1,1,.66,3,3,0,0,1,.64,1,3,3,0,0,1,.19,1.15c.4,10.22-.33,20.41-.76,30.67-.23,4.34.83,21.49-6.27,21.49-4.9,0-6.95-6-8.25-9.72a109.23,109.23,0,0,1-3.58-13.8c-.89-4.08-1.72-8.19-2.54-12.34,0,1.7-.17,3.42-.24,5a215.11,215.11,0,0,0-.4,22,2.79,2.79,0,0,1-.17,1.1,2.76,2.76,0,0,1-1.52,1.55,2.74,2.74,0,0,1-1.09.2,3,3,0,0,1-2.13-.8,3,3,0,0,1-1-2,223.48,223.48,0,0,1-.24-24.28Z"/><path class="cls-1" d="M412.52,8.94C417,8,421.5,7.22,426,6.58a42.53,42.53,0,0,1,7.07-1.23,5.37,5.37,0,0,1,4.15,1.56,2.39,2.39,0,0,1,.57,1.26,2.45,2.45,0,0,1-.24,1.36c-1.63,3.35-6.93,3-10.11,3.42l-1.06.17c.16,6.79.64,13.63,1.06,20.49.16,3.92.31,7.86.57,11.8.23,3.61.89,7.6-1.16,10.78a2.74,2.74,0,0,1-2.36,1.23,2,2,0,0,1-.94-.17,2.08,2.08,0,0,1-.78-.56c-2.52-2.93-2.61-6.94-2.75-10.69s-.33-7.93-.43-11.79c0-6.8.26-13.5.66-20.27l-6.13,1c-3.84.56-5.54-5.14-1.62-5.88Z"/><path class="cls-1" d="M450.47,42.18a42,42,0,0,0,.33-4.48V25a21.22,21.22,0,0,0-.17-3.35,87.52,87.52,0,0,0-6.78,22.39,25.07,25.07,0,0,1,6.69-1.89ZM435.79,46.9a127.67,127.67,0,0,1,3.72-17.53A53,53,0,0,1,449.72,8.45a3.66,3.66,0,0,1,2.75-1.23,4.67,4.67,0,0,1,3.11,1.23c2.86,2.85,2.79,6.62,2.79,10.38,0,4.41.23,8.89.23,13.3s-.16,9.08-.4,13.56c-.26,3.35.33,6.54.24,9.89a3.37,3.37,0,0,1-1,2.13,3.33,3.33,0,0,1-2.12,1A2.18,2.18,0,0,1,454,58.2c-2.88-2.2-3.68-5.88-3.68-9.79-2.54.73-5.23,1.46-7.75,2-.66,2.79-1.39,5.57-2.22,8.17a2.38,2.38,0,0,1-.85,1.32,2.28,2.28,0,0,1-1.51.49,2.53,2.53,0,0,1-2.52-2.36,41.83,41.83,0,0,1,0-7.59,2.56,2.56,0,0,1,.33-3.52Z"/><path class="cls-1" d="M466.24,13.26C468,9.34,471.78,3.07,476.58,3.07a7,7,0,0,1,2.36.47,3.09,3.09,0,0,1,1.31,3.35,3.11,3.11,0,0,1-1,1.59,3,3,0,0,1-1.75.7l-.19.16c-.31.43-.64.83-.87,1.23a11.73,11.73,0,0,0-1.16,1.63,18.34,18.34,0,0,0-2.19,4.41,14.42,14.42,0,0,0-.75,8.09c1.22,6,8,8.35,11.5,12.83a13,13,0,0,1-.8,17.72c-4,4.41-10.14,9.43-16.5,8.25-2.85-.49-3-4.08-1.56-6,2.2-2.59,5.54-3.75,8.25-5.8,2-1.46,5.64-4.08,4.72-6.93s-4-4.72-6.11-6.44a21.13,21.13,0,0,1-6-7,20.5,20.5,0,0,1-1.95-9.11,20.27,20.27,0,0,1,2.28-9Z"/></svg>