<?xml version="1.0" encoding="utf-8"?>
<!-- Generator: Adobe Illustrator 23.0.2, SVG Export Plug-In . SVG Version: 6.00 Build 0)  -->
<svg version="1.1" id="Layer_1" xmlns="http://www.w3.org/2000/svg" xmlns:xlink="http://www.w3.org/1999/xlink" x="0px" y="0px"
	 viewBox="0 0 50 50" style="enable-background:new 0 0 50 50;" xml:space="preserve">
<style type="text/css">
	.st0{fill:#1C1B1F;}
</style>
<g>
	<path class="st0" d="M15.33,49.88c-1.25,0-2.31-0.44-3.19-1.32c-0.88-0.88-1.32-1.95-1.32-3.19c0-1.25,0.44-2.31,1.32-3.19
		c0.88-0.88,1.94-1.32,3.19-1.32s2.31,0.44,3.19,1.32c0.88,0.88,1.32,1.95,1.32,3.19c0,1.25-0.44,2.31-1.32,3.19
		C17.64,49.43,16.58,49.88,15.33,49.88z M40.33,49.88c-1.24,0-2.31-0.44-3.19-1.32c-0.88-0.88-1.32-1.95-1.32-3.19
		c0-1.25,0.44-2.31,1.32-3.19c0.88-0.88,1.95-1.32,3.19-1.32c1.25,0,2.31,0.44,3.19,1.32c0.88,0.88,1.32,1.95,1.32,3.19
		c0,1.25-0.44,2.31-1.32,3.19C42.64,49.43,41.58,49.88,40.33,49.88z M12.43,9.14l6.51,13.66h17.59c0.13,0,0.26-0.03,0.39-0.1
		c0.13-0.06,0.21-0.16,0.26-0.29l6.96-12.57c0.08-0.17,0.08-0.33,0-0.48c-0.09-0.15-0.22-0.23-0.39-0.23H12.43V9.14z M10.56,5.28
		h35.77c1.2,0,2.05,0.44,2.54,1.32c0.5,0.88,0.49,1.82-0.03,2.8l-8.31,14.95c-0.39,0.73-0.93,1.3-1.61,1.71
		c-0.69,0.41-1.46,0.61-2.32,0.61H17.78l-2.97,5.48c-0.12,0.21-0.13,0.43-0.03,0.64c0.11,0.21,0.29,0.32,0.55,0.32h29.51v3.87H15.33
		c-1.72,0-3.01-0.74-3.87-2.22s-0.88-2.95-0.06-4.42l3.67-6.64L5.66,3.99H0.77V0.12h7.34L10.56,5.28z"/>
</g>
</svg>
