<?xml version="1.0" encoding="utf-8"?>
<!-- Generator: Adobe Illustrator 23.0.2, SVG Export Plug-In . SVG Version: 6.00 Build 0)  -->
<svg version="1.1" id="Layer_1" xmlns="http://www.w3.org/2000/svg" xmlns:xlink="http://www.w3.org/1999/xlink" x="0px" y="0px"
	 viewBox="0 0 50 50" style="enable-background:new 0 0 50 50;" xml:space="preserve">
<style type="text/css">
	.st0{fill-rule:evenodd;clip-rule:evenodd;}
</style>
<path class="st0" d="M35.84,11.45c0,5.99-4.85,10.84-10.84,10.84c-5.99,0-10.84-4.85-10.84-10.84S19.02,0.62,25.01,0.62
	C30.99,0.62,35.84,5.47,35.84,11.45z M30.42,11.45c0,2.99-2.43,5.42-5.42,5.42s-5.42-2.43-5.42-5.42s2.43-5.42,5.42-5.42
	S30.42,8.46,30.42,11.45z"/>
<path d="M35.84,33.13c0-1.5-1.21-2.71-2.71-2.71H16.88c-1.5,0-2.71,1.21-2.71,2.71v16.26H8.75V33.13c0-4.49,3.64-8.13,8.13-8.13
	h16.26c4.49,0,8.13,3.64,8.13,8.13v16.26h-5.42V33.13z"/>
</svg>
